<?xml version="1.0" standalone="no"?><!DOCTYPE svg PUBLIC "-//W3C//DTD SVG 1.1//EN" "http://www.w3.org/Graphics/SVG/1.1/DTD/svg11.dtd"><svg class="icon" width="200px" height="95.39px" viewBox="0 0 2147 1024" version="1.1" xmlns="http://www.w3.org/2000/svg"><path d="M495.483871 33.032258h1156.129032c274.167742 0 495.483871 221.316129 495.483871 495.483871s-221.316129 495.483871-495.483871 495.483871H495.483871C221.316129 1024 0 802.683871 0 528.516129S221.316129 33.032258 495.483871 33.032258z" fill="#F7931E" /><path d="M478.967742 0h1189.16129c264.258065 0 478.967742 214.709677 478.967742 478.967742s-214.709677 478.967742-478.967742 478.967742H478.967742C214.709677 957.935484 0 743.225806 0 478.967742S214.709677 0 478.967742 0z" fill="#FDC522" /><path d="M794.425806 312.154839v-41.290323h46.245162v41.290323h181.677419v42.941935h-140.387097c36.335484 29.729032 90.83871 54.503226 161.858065 71.019355L1024 469.058065c-85.883871-29.729032-145.341935-67.716129-183.329032-113.961291v84.232258h-46.245162v-84.232258c-37.987097 46.245161-99.096774 84.232258-181.677419 113.961291l-24.774193-41.290323c72.670968-19.819355 127.174194-44.593548 165.16129-72.670968H611.096774v-42.941935h183.329032z m236.180646 360.051613v42.941935h-429.419355v-42.941935h429.419355z m-62.761291-218.012904v186.632258H665.6V454.193548h302.245161z m-44.593548 75.974194v-33.032258H710.193548v33.032258h213.058065z m0 39.63871H710.193548v31.380645h211.406452v-31.380645zM1296.516129 358.4c3.303226-8.258065 8.258065-16.516129 11.56129-24.774194-46.245161 3.303226-97.445161 3.303226-150.296774 3.303226l-13.212903-37.987097c140.387097 0 257.651613-9.909677 353.445161-28.077419l21.470968 36.335484c-47.896774 9.909677-102.4 16.516129-165.16129 21.470968-3.303226 9.909677-6.606452 19.819355-9.909678 28.077419h178.374194V396.387097H1322.941935l-14.864516 24.774193h239.483871V462.451613H1281.651613l-19.819355 24.774193h239.483871V726.709677h-44.593548v-16.516129h-214.709678v18.167742h-44.593548V553.290323a845.625806 845.625806 0 0 1-72.670968 56.154838l-24.774193-39.638709c47.896774-33.032258 89.187097-67.716129 123.870967-104.051613h-110.658064v-41.290323h143.690322c6.606452-8.258065 11.56129-16.516129 16.516129-24.774193H1139.612903v-39.63871h156.903226z m160.206452 168.464516h-214.709678v24.774194h214.709678v-24.774194zM1243.664516 611.096774h214.709678v-23.12258h-214.709678V611.096774z m0 61.109678h214.709678v-24.774194h-214.709678v24.774194z" fill="#FFFFFF" /></svg>