<?xml version="1.0" standalone="no"?><!DOCTYPE svg PUBLIC "-//W3C//DTD SVG 1.1//EN" "http://www.w3.org/Graphics/SVG/1.1/DTD/svg11.dtd"><svg class="icon" width="200px" height="200.00px" viewBox="0 0 1024 1024" version="1.1" xmlns="http://www.w3.org/2000/svg"><path fill="#333333" d="M280.132359 598.088496h29.943824a52.007695 52.007695 0 1 1 0 104.01539h-29.943824a52.007695 52.007695 0 1 1 0-104.01539z m335.292035-243.490574a52.007695 52.007695 0 0 1-52.007695 52.007696H280.132359a52.401693 52.401693 0 1 1 0-104.409389h283.28434a52.401693 52.401693 0 0 1 52.007695 52.401693z m-485.011158 551.596768h275.798384a379.025779 379.025779 0 0 0 73.28357 104.015391H91.407464A91.801462 91.801462 0 0 1 0 918.802616v-827.395152A91.801462 91.801462 0 0 1 91.407464 0h678.858023a92.19546 92.19546 0 0 1 91.407464 92.19546v293.52828a378.237784 378.237784 0 0 0-99.287418-18.517892V136.323201a31.519815 31.519815 0 0 0-31.519815-31.519815H130.413236a31.519815 31.519815 0 0 0-31.125818 31.519815V875.068873a31.519815 31.519815 0 0 0 31.125818 31.125817z m760.021547-118.199307a46.885725 46.885725 0 1 1 46.885725-46.885725 46.885725 46.885725 0 0 1-46.885725 46.885725m-146.961139 0a46.885725 46.885725 0 1 1 46.885725-46.885725 46.885725 46.885725 0 0 1-46.885725 46.885725m-146.961139 0a46.885725 46.885725 0 1 1 46.885725-46.885725 46.885725 46.885725 0 0 1-46.885725 46.885725m146.961139-327.806079A280.920354 280.920354 0 1 0 1024.393998 743.079646a280.920354 280.920354 0 0 0-280.920354-280.920354" /></svg>