<?xml version="1.0" standalone="no"?><!DOCTYPE svg PUBLIC "-//W3C//DTD SVG 1.1//EN" "http://www.w3.org/Graphics/SVG/1.1/DTD/svg11.dtd"><svg class="icon" width="200px" height="200.00px" viewBox="0 0 1024 1024" version="1.1" xmlns="http://www.w3.org/2000/svg"><path fill="#333333" d="M787.424283 256H456.88977a646.968637 646.968637 0 0 1-44.113558 160.269593c1.196177-62.844602-10.98308-123.695575-10.983079-123.695575s18.368566-19.401628 18.368566-36.574018h-73.44708c0 17.172389 18.359504 36.574018 18.359505 36.574018s-12.115823 60.751292-10.964956 123.514336A643.597593 643.597593 0 0 1 309.995611 256C273.276602 256 163.101451 256 163.101451 365.712991v182.861027c0 109.712991 73.44708 109.712991 73.44708 109.712991v292.574018c0 40.380035 32.894867 73.138973 73.456142 73.138973 40.552212 0 73.44708-32.758938 73.447079-73.138973 0 40.380035 32.894867 73.138973 73.44708 73.138973 40.552212 0 73.44708-32.758938 73.44708-73.138973V365.712991h257.078371c36.719009 0 73.44708-18.287009 73.44708-54.861026 0-36.574018-36.728071-54.851965-73.44708-54.851965M493.626903 109.712991c0 60.597239-49.351363 109.712991-110.175151 109.712991-60.83285 0-110.17515-49.115752-110.17515-109.712991C273.276602 49.088566 322.618903 0 383.451752 0c60.823788 0 110.17515 49.097628 110.175151 109.712991M580.250053 934.042053a39.047929 39.047929 0 0 0 9.370053 30.547823c9.515044 9.859398 27.113345 7.612035 27.113345 7.612036l83.614584-88.625841-34.44446-33.148602-85.653522 83.614584z m168.67908-70.030726l-96.056637-96.419115-1.948319-27.27646-36.193416-24.077593-10.24 10.674974-10.294372 10.674973-10.24 10.674974 23.044531 37.534584 24.648496 2.220177 97.443115 96.62754-20.325947 21.485876L795.897204 996.814159c29.995044-8.23731 47.330549-30.013168 56.936212-59.310442l-87.357168-90.610407-16.556177 17.127079z m-1.930195-33.909805l14.499115-15.976212c26.098407 12.98577 57.044956 8.84446 79.183292-10.602478C860.871363 785.299257 860.871363 749.640496 860.871363 749.640496l-15.822159-6.524602-30.538762 32.668318-44.611964-46.614654 30.738124-32.894868L794.465416 679.646018c-19.066336 0.471221-37.344283 8.037947-51.562478 21.349947-20.117522 22.192708-24.666619 55.241628-11.381805 82.48184l-15.12439 15.767788 30.602195 30.855929z" /></svg>