<?xml version="1.0" standalone="no"?><!DOCTYPE svg PUBLIC "-//W3C//DTD SVG 1.1//EN" "http://www.w3.org/Graphics/SVG/1.1/DTD/svg11.dtd"><svg class="icon" width="200px" height="200.00px" viewBox="0 0 1024 1024" version="1.1" xmlns="http://www.w3.org/2000/svg"><path fill="#333333" d="M194.66666666 74.66666666C150.34666635 74.66666666 114.66666697 110.34666697 114.66666697 154.66666635v160.00000031c0 44.32000031 35.68000031 79.99999969 79.99999969 79.99999969H74.66666666v80.00000062h480V394.66666635H434.66666666c44.32000031 0 79.99999969-35.68000031 79.99999969-79.99999969V154.66666635c0-44.32000031-35.68000031-79.99999969-79.99999969-79.99999969H194.66666666z m0 79.99999969h240v160.00000031H194.66666666V154.66666635zM154.66666635 554.66666666v280.00000031h280.00000031v-80.00000062H234.66666697v-199.99999969H154.66666635z m440.00000062 0c-44.32000031 0-79.99999969 35.68000031-80.00000062 79.99999969v160.00000031c0 44.32000031 35.68000031 79.99999969 80.00000062 79.99999969h-120v80.00000062h480v-80.00000062h-120c44.32000031 0 79.99999969-35.68000031 79.99999969-79.99999969v-160.00000031c0-44.32000031-35.68000031-79.99999969-79.99999969-79.99999969h-240z m0 79.99999969h240v160.00000031h-240v-160.00000031z"  /></svg>