<?xml version="1.0" standalone="no"?><!DOCTYPE svg PUBLIC "-//W3C//DTD SVG 1.1//EN" "http://www.w3.org/Graphics/SVG/1.1/DTD/svg11.dtd"><svg class="icon" width="200px" height="194.31px" viewBox="0 0 1054 1024" version="1.1" xmlns="http://www.w3.org/2000/svg"><path fill="#333333" d="M463.131628 0h-447.161572v447.161572h447.161572z m-95.820337 353.257642h-255.520898v-255.520898h255.520898zM590.892077 1022.083593h447.161572V574.922021h-447.161572z m95.820337-351.341235h255.520899v255.520898h-255.520899zM878.353088 177.587024h-150.75733l69.629445-70.268247L729.512165 39.605739 542.343107 226.774797l187.169058 187.807861 67.713038-67.713039-73.462259-73.462258h154.590144A79.850281 79.850281 0 0 1 958.203369 353.257642V383.281347h95.820337v-31.940112a175.670618 175.670618 0 0 0-175.670618-173.754211zM255.520898 679.046787l73.462259 73.462259h-153.312539a79.850281 79.850281 0 0 1-79.850281-79.850281V638.802246H0v31.940112a175.670618 175.670618 0 0 0 175.670618 175.670618h150.75733L255.520898 917.958827l67.713038 67.713038L511.041797 798.502807 324.511541 611.333749z" /></svg>